<mxfile host="app.diagrams.net" modified="2023-02-18T00:58:50.530Z" agent="5.0 (Windows NT 10.0; Win64; x64) AppleWebKit/537.36 (KHTML, like Gecko) Chrome/110.0.0.0 Safari/537.36" etag="X1r1U9djm9yMGwjm4lIM" version="20.8.20" type="github">
  <diagram name="Страница 1" id="RMSOfdy2bYeMtauUsbTD">
    <mxGraphModel dx="1434" dy="806" grid="1" gridSize="10" guides="1" tooltips="1" connect="1" arrows="1" fold="1" page="1" pageScale="1" pageWidth="827" pageHeight="1169" math="0" shadow="0">
      <root>
        <mxCell id="0" />
        <mxCell id="1" parent="0" />
        <mxCell id="SmLy5QQOCFhT0gfIRZuu-10" style="edgeStyle=orthogonalEdgeStyle;rounded=0;orthogonalLoop=1;jettySize=auto;html=1;" parent="1" source="SmLy5QQOCFhT0gfIRZuu-2" target="SmLy5QQOCFhT0gfIRZuu-6" edge="1">
          <mxGeometry relative="1" as="geometry" />
        </mxCell>
        <mxCell id="SmLy5QQOCFhT0gfIRZuu-2" value="START" style="ellipse;whiteSpace=wrap;html=1;" parent="1" vertex="1">
          <mxGeometry x="354" y="30" width="120" height="70" as="geometry" />
        </mxCell>
        <mxCell id="SmLy5QQOCFhT0gfIRZuu-9" value="yes" style="edgeStyle=orthogonalEdgeStyle;rounded=0;orthogonalLoop=1;jettySize=auto;html=1;" parent="1" source="SmLy5QQOCFhT0gfIRZuu-4" target="SmLy5QQOCFhT0gfIRZuu-5" edge="1">
          <mxGeometry relative="1" as="geometry" />
        </mxCell>
        <mxCell id="SmLy5QQOCFhT0gfIRZuu-19" value="no" style="edgeStyle=orthogonalEdgeStyle;rounded=0;orthogonalLoop=1;jettySize=auto;html=1;entryX=1;entryY=0.5;entryDx=0;entryDy=0;" parent="1" source="SmLy5QQOCFhT0gfIRZuu-4" target="SmLy5QQOCFhT0gfIRZuu-18" edge="1">
          <mxGeometry relative="1" as="geometry" />
        </mxCell>
        <mxCell id="SmLy5QQOCFhT0gfIRZuu-4" value="array[i].Length &amp;lt;= 3" style="rhombus;whiteSpace=wrap;html=1;" parent="1" vertex="1">
          <mxGeometry x="334" y="370" width="160" height="80" as="geometry" />
        </mxCell>
        <mxCell id="SmLy5QQOCFhT0gfIRZuu-22" style="edgeStyle=orthogonalEdgeStyle;rounded=0;orthogonalLoop=1;jettySize=auto;html=1;" parent="1" source="SmLy5QQOCFhT0gfIRZuu-5" edge="1">
          <mxGeometry relative="1" as="geometry">
            <mxPoint x="240" y="440" as="targetPoint" />
            <Array as="points">
              <mxPoint x="600" y="480" />
              <mxPoint x="240" y="480" />
            </Array>
          </mxGeometry>
        </mxCell>
        <mxCell id="SmLy5QQOCFhT0gfIRZuu-5" value="newArray[size] = array[i]&lt;br&gt;size++&lt;br&gt;" style="rounded=0;whiteSpace=wrap;html=1;" parent="1" vertex="1">
          <mxGeometry x="530" y="380" width="140" height="60" as="geometry" />
        </mxCell>
        <mxCell id="SmLy5QQOCFhT0gfIRZuu-11" style="edgeStyle=orthogonalEdgeStyle;rounded=0;orthogonalLoop=1;jettySize=auto;html=1;" parent="1" source="SmLy5QQOCFhT0gfIRZuu-6" target="SmLy5QQOCFhT0gfIRZuu-7" edge="1">
          <mxGeometry relative="1" as="geometry" />
        </mxCell>
        <mxCell id="SmLy5QQOCFhT0gfIRZuu-6" value="array[] = ,,, , ,,, ,,,&lt;br&gt;size = 0&lt;br&gt;i = 0" style="rounded=0;whiteSpace=wrap;html=1;" parent="1" vertex="1">
          <mxGeometry x="354" y="130" width="120" height="60" as="geometry" />
        </mxCell>
        <mxCell id="SmLy5QQOCFhT0gfIRZuu-8" style="edgeStyle=orthogonalEdgeStyle;rounded=0;orthogonalLoop=1;jettySize=auto;html=1;entryX=0.5;entryY=0;entryDx=0;entryDy=0;" parent="1" source="SmLy5QQOCFhT0gfIRZuu-7" target="SmLy5QQOCFhT0gfIRZuu-4" edge="1">
          <mxGeometry relative="1" as="geometry" />
        </mxCell>
        <mxCell id="SmLy5QQOCFhT0gfIRZuu-24" style="edgeStyle=orthogonalEdgeStyle;rounded=0;orthogonalLoop=1;jettySize=auto;html=1;entryX=0;entryY=0.5;entryDx=0;entryDy=0;" parent="1" source="SmLy5QQOCFhT0gfIRZuu-7" target="SmLy5QQOCFhT0gfIRZuu-23" edge="1">
          <mxGeometry relative="1" as="geometry" />
        </mxCell>
        <mxCell id="SmLy5QQOCFhT0gfIRZuu-7" value="i &amp;lt; array.Length" style="rhombus;whiteSpace=wrap;html=1;" parent="1" vertex="1">
          <mxGeometry x="291" y="220" width="246" height="80" as="geometry" />
        </mxCell>
        <mxCell id="SmLy5QQOCFhT0gfIRZuu-20" style="edgeStyle=orthogonalEdgeStyle;rounded=0;orthogonalLoop=1;jettySize=auto;html=1;entryX=0;entryY=0.5;entryDx=0;entryDy=0;exitX=0.5;exitY=0;exitDx=0;exitDy=0;" parent="1" source="SmLy5QQOCFhT0gfIRZuu-18" target="SmLy5QQOCFhT0gfIRZuu-7" edge="1">
          <mxGeometry relative="1" as="geometry">
            <mxPoint x="250" y="380" as="sourcePoint" />
          </mxGeometry>
        </mxCell>
        <mxCell id="SmLy5QQOCFhT0gfIRZuu-18" value="i++" style="rounded=0;whiteSpace=wrap;html=1;" parent="1" vertex="1">
          <mxGeometry x="210" y="385" width="70" height="50" as="geometry" />
        </mxCell>
        <mxCell id="SmLy5QQOCFhT0gfIRZuu-23" value="resize newArray&lt;br&gt;return newArray&lt;br&gt;ShowArray(newArray)" style="shape=parallelogram;perimeter=parallelogramPerimeter;whiteSpace=wrap;html=1;fixedSize=1;" parent="1" vertex="1">
          <mxGeometry x="560" y="230" width="170" height="60" as="geometry" />
        </mxCell>
      </root>
    </mxGraphModel>
  </diagram>
</mxfile>
